<svg width="279" height="76" viewBox="0 0 279 76" fill="none" xmlns="http://www.w3.org/2000/svg">
<path fill-rule="evenodd" clip-rule="evenodd" d="M105.58 55.4053C105.58 53.8464 105.063 52.6411 104.04 51.8C103.016 50.9589 101.581 50.5357 99.7294 50.5357H93.4059V64.5071H97.0988V60.5803H99.7294C101.576 60.5803 103.016 60.125 104.04 59.2196C105.068 58.3143 105.58 57.0446 105.58 55.4053ZM99.5458 57.7839H97.0988H97.0932V53.3268H99.5403C100.352 53.3268 100.975 53.5143 101.42 53.8839C101.859 54.2536 102.082 54.8 102.082 55.5232C102.082 56.2571 101.865 56.8196 101.426 57.2053C100.992 57.5911 100.363 57.7839 99.5458 57.7839Z" fill="#009ADE"/>
<path fill-rule="evenodd" clip-rule="evenodd" d="M125.346 53.8946C124.662 52.8178 123.722 51.9714 122.526 51.35C121.33 50.7286 119.995 50.4178 118.516 50.4178C117.037 50.4178 115.702 50.7286 114.517 51.3393C113.327 51.9553 112.393 52.7964 111.709 53.8732C111.019 54.95 110.68 56.1607 110.68 57.5053C110.68 58.85 111.025 60.0661 111.709 61.1589C112.393 62.2464 113.333 63.1036 114.528 63.7303C115.724 64.3571 117.053 64.6678 118.516 64.6678C119.99 64.6678 121.33 64.3518 122.526 63.7303C123.727 63.1089 124.662 62.2518 125.346 61.1589C126.03 60.0661 126.369 58.85 126.369 57.5053C126.369 56.1714 126.03 54.9714 125.346 53.8946ZM115.018 55.4214C115.391 54.7893 115.891 54.2911 116.52 53.9321C117.148 53.5678 117.826 53.3911 118.561 53.3911C119.295 53.3911 119.973 53.5732 120.585 53.9321C121.197 54.2964 121.686 54.7893 122.048 55.4214C122.404 56.0536 122.587 56.7553 122.587 57.5268C122.587 58.3036 122.409 59.0053 122.048 59.6482C121.686 60.2857 121.197 60.7893 120.585 61.1536C119.968 61.5178 119.295 61.7 118.561 61.7C117.832 61.7 117.148 61.5178 116.52 61.1536C115.891 60.7893 115.391 60.2911 115.018 59.6482C114.645 59.0053 114.462 58.3036 114.462 57.5268C114.462 56.7553 114.645 56.0536 115.018 55.4214Z" fill="#009ADE"/>
<path fill-rule="evenodd" clip-rule="evenodd" d="M138.944 60.5803H139.055L141.213 64.5178H145.389L142.342 59.9053C143.198 59.4928 143.849 58.9036 144.299 58.1482C144.75 57.3875 144.972 56.4768 144.972 55.4107C144.972 53.8518 144.449 52.6464 143.398 51.8053C142.353 50.9589 140.868 50.5357 138.944 50.5357H132.459V64.5071H136.152V60.5803H138.944ZM140.812 57.2053C140.367 57.5911 139.744 57.7839 138.944 57.7839V57.7786H136.152V53.3268H138.944C139.75 53.3268 140.373 53.5143 140.812 53.8839C141.252 54.2536 141.474 54.8 141.474 55.5232C141.474 56.2571 141.252 56.8196 140.812 57.2053Z" fill="#009ADE"/>
<path d="M158.314 53.3911V64.5125H154.621V53.3911H150.289V50.5143H162.686V53.3911H158.314Z" fill="#009ADE"/>
<path fill-rule="evenodd" clip-rule="evenodd" d="M169.087 64.5071L170.138 61.9357V61.9411H176.478L177.512 64.5125H181.45L175.338 50.5357H171.545L165.294 64.5071H169.087ZM171.211 59.2357L173.325 54.0714L175.399 59.2357H171.211Z" fill="#009ADE"/>
<path d="M196.778 61.5393V64.5125H186.934V50.5357H190.626V61.5393H196.778Z" fill="#009ADE"/>
<path fill-rule="evenodd" clip-rule="evenodd" d="M89.2291 34.65V33.6667C89.4298 33.6332 89.6219 33.6019 89.8059 33.572L89.8063 33.5719C93.4742 32.9749 93.8897 32.9073 93.8897 26.8555V17.5222L93.8822 17.2688C93.7508 12.7619 93.7339 12.1812 89.2291 11.7667V10.7833H99.8914C103.915 10.7833 110.096 10.7833 110.096 16.0833C110.096 19.2444 106.882 20.6444 104.273 21.2778V21.35C107.838 22.0889 111.722 24.1222 111.722 28.3C111.722 34.1278 105.329 34.6555 100.92 34.6555H89.2291V34.65ZM98.5498 28.2675V28.2678C98.5448 30.7413 98.5396 33.2778 101.836 33.2778C104.552 33.2778 106.424 31.45 106.424 28.75C106.424 24.75 102.68 22.3278 98.5502 22.6444V27.9778C98.5502 28.0742 98.55 28.1708 98.5498 28.2675ZM104.792 16.5722C104.792 20.0111 102.183 21.3111 99.0755 21.3111H98.5447V12.1833C101.791 12.1833 104.792 12.6778 104.792 16.5722Z" fill="#00447C"/>
<path d="M119.383 18.4333L119.948 18.9611L119.523 22.8555L119.596 22.9278C120.831 21.1722 122.563 18.6444 125.066 18.6444C126.195 18.6444 127.324 19.5555 127.324 20.6444C127.324 22.1167 125.737 23.4889 124.502 24.0833C123.938 23.3444 123.127 22.15 122.099 22.15C120.054 22.15 119.948 24.6444 119.948 26.1167V30.2222C119.948 33.1 119.948 33.0333 123.865 33.8V34.6444H113.096V33.8C115.779 33.1 115.779 32.9944 115.779 30.2222V24.8167C115.779 22.3611 115.779 22.9222 113.661 21.3778V20.8167L119.383 18.4333Z" fill="#00447C"/>
<path fill-rule="evenodd" clip-rule="evenodd" d="M130.219 12.7111C130.219 14.0833 131.381 15.2055 132.795 15.2055C134.209 15.2055 135.371 14.0833 135.371 12.7111C135.371 11.3389 134.209 10.1833 132.795 10.1833C131.381 10.1833 130.219 11.3389 130.219 12.7111ZM130.637 22.8296C130.856 23.1826 130.856 23.6707 130.856 24.8222V30.2278C130.856 33 130.856 33.1055 128.173 33.8055V34.65H137.735V33.8055C137.673 33.7882 137.613 33.7713 137.555 33.7547C135.019 33.0404 135.019 33.0404 135.019 30.2278V23.1722L135.159 18.9611L134.455 18.4333L128.738 20.8222V21.3833C129.863 22.2035 130.39 22.4299 130.637 22.8296Z" fill="#00447C"/>
<path fill-rule="evenodd" clip-rule="evenodd" d="M155.159 29.0333V9.90555L154.522 9.38333L148.805 11.7722V12.3333C149.213 12.6206 149.544 12.835 149.814 13.0096C150.996 13.7734 150.996 13.7734 150.996 15.7722V19.1389C150.858 19.1177 150.718 19.0958 150.575 19.0736C149.301 18.8748 147.86 18.65 146.302 18.65C141.462 18.65 138.322 23.4944 138.322 27.6C138.322 31.4944 141.283 35.1444 145.38 35.1444C147.676 35.1444 149.515 34.0944 150.996 32.4778L150.89 35.25L158.512 33.6333L158.406 32.7889C156.847 32.8723 156.037 32.9166 155.615 32.5331C155.139 32.0997 155.159 31.1201 155.159 29.0333ZM146.581 20.1167C149.336 20.1167 150.996 22.7167 150.996 25.5944H150.99V31.3111C150.074 32.15 149.297 32.5389 147.956 32.5389C144.323 32.5389 142.697 28.6778 142.697 25.6611C142.697 23.3833 143.759 20.1167 146.581 20.1167Z" fill="#00447C"/>
<path fill-rule="evenodd" clip-rule="evenodd" d="M178.183 21.6944L178.171 21.6939V19.7611H172.455C170.968 18.9889 169.308 18.6389 167.615 18.6389C164.117 18.6389 160.306 20.4667 160.306 24.3611C160.306 26.6444 161.966 28.2944 164.05 29.0667C163.699 29.3632 163.232 29.6777 162.746 30.005L162.746 30.005C161.565 30.7996 160.272 31.6693 160.272 32.5389C160.272 34.3611 162.642 35.2056 164.123 35.45V35.5222C162.323 36.2222 159.322 37.5889 159.322 39.7667C159.322 42.7111 163.133 43.5556 165.43 43.5556C169.705 43.5556 177.613 41.1333 177.613 36.0111C177.613 31.8156 172.984 31.9927 169.15 32.1394C166.441 32.2431 164.128 32.3316 164.128 30.85C164.128 30.357 164.499 29.8689 164.807 29.4625L164.871 29.3778C165.682 29.5222 166.492 29.6611 167.341 29.6611C170.84 29.6611 174.438 27.5889 174.438 23.8C174.438 22.8889 174.26 22.2556 173.768 21.4833L178.171 21.6939V21.6944H178.183ZM165.648 35.4889C164.553 36.0167 163.497 37.1389 163.497 38.3667C163.497 40.7167 166.743 41.5611 168.616 41.5611C170.84 41.5611 174.299 40.7167 174.299 38.0167C174.299 35.6667 172.321 35.35 170.342 35.35L165.648 35.4889ZM167.626 28.5444C165.335 28.5444 164.486 25.5222 164.486 23.7333C164.486 22.2222 165.117 19.7667 167.096 19.7667C169.465 19.7667 170.275 22.75 170.275 24.5778C170.275 26.1944 169.672 28.5444 167.626 28.5444Z" fill="#00447C"/>
<path fill-rule="evenodd" clip-rule="evenodd" d="M188.89 32.0833C184.62 32.0833 182.43 28.4722 182.536 24.6444H192.986C192.846 20.8889 190.695 18.6444 186.738 18.6444C182.184 18.6444 178.512 22.75 178.512 27.0667C178.512 31.6278 181.904 35.1389 186.353 35.1389C189.46 35.1389 191.93 33.0667 193.623 30.7167L192.74 30.0833C191.645 31.3111 190.583 32.0833 188.89 32.0833ZM185.995 19.9111C187.861 19.9111 188.426 21.8056 188.605 23.2778L182.748 23.4556C183.1 21.8778 184.017 19.9111 185.995 19.9111Z" fill="#00447C"/>
<path d="M203.212 26.8555C203.212 31.6278 203 33.2444 208.683 33.6667V34.65H193.891V33.6667C198.093 32.9667 198.552 33.2111 198.552 26.8555V17.5222C198.552 12.2555 198.233 12.3611 193.891 11.7667V10.7833H204.872C208.191 10.7833 215.288 10.7833 215.288 17.0278C215.288 22.3611 209.818 23.8389 205.509 24.6778L205.263 23.6611C208.191 22.8889 209.991 21.0667 209.991 17.9389C209.991 13.9 207.13 12.1833 203.212 12.1833V26.8555Z" fill="#00447C"/>
<path fill-rule="evenodd" clip-rule="evenodd" d="M225.034 18.6444C219.988 18.6444 215.646 21.9111 215.646 27.0667C215.646 32.1889 220.094 35.1389 224.962 35.1389C229.907 35.1389 234.143 31.8778 234.143 26.8222C234.143 21.8722 229.874 18.6444 225.034 18.6444ZM224.749 19.9056C228.281 19.9056 229.483 24.3278 229.483 27.2778C229.483 29.8056 228.566 33.8778 225.241 33.8722C221.676 33.8722 220.301 29.4889 220.301 26.6444C220.301 23.9778 221.609 19.9056 224.749 19.9056Z" fill="#00447C"/>
<path fill-rule="evenodd" clip-rule="evenodd" d="M236.976 12.7111C236.976 14.0833 238.139 15.2055 239.553 15.2055C240.966 15.2055 242.129 14.0833 242.129 12.7111C242.129 11.3389 240.966 10.1833 239.553 10.1833C238.139 10.1833 236.976 11.3389 236.976 12.7111ZM237.395 22.8296C237.613 23.1826 237.613 23.6707 237.613 24.8222H237.608V30.2278C237.608 33 237.608 33.1055 234.926 33.8055V34.65H244.493V33.8055C243.136 33.4225 242.457 33.2475 242.117 32.8094C241.777 32.3706 241.777 31.6678 241.777 30.2278V23.1722L241.916 18.9611L241.212 18.4333L235.496 20.8222V21.3833C236.62 22.2035 237.148 22.4299 237.395 22.8296Z" fill="#00447C"/>
<path d="M252.517 30.2222C252.517 33.1 252.517 33.0333 254.987 33.8V34.6444H245.666V33.8C248.348 33.1 248.348 32.9944 248.348 30.2222V24.8167C248.348 22.3611 248.348 22.9222 246.231 21.3778V20.8167L251.947 18.4278L252.651 18.9555L252.26 21.1667C254.378 19.7611 256.463 18.6389 258.687 18.6389C260.061 18.6389 261.581 19.3778 262.392 20.5C263.381 21.8667 263.308 23.6944 263.308 25.3111V30.2222C263.308 32.9944 263.308 33.1 265.991 33.8V34.6444H256.669V33.8C259.139 33.0278 259.139 33.1 259.139 30.2222V25.9055C259.139 23.1333 258.502 21.0278 255.149 21.0278C254.194 21.0278 253.316 21.3778 252.501 21.8333V30.2222H252.517Z" fill="#00447C"/>
<path d="M278.547 33.8389C277.525 34.1889 276.429 34.5056 275.334 34.75C274.205 34.9944 273.11 35.1333 271.981 35.1333C268.522 35.1333 268.522 32.6056 268.522 29.8722V21.3111H265.806V20.4667L272.02 15.1333H272.691V19.3778H278.553V21.3111H272.685V27.45C272.685 31.4167 272.579 32.8889 277.167 32.8889H278.542V33.8389H278.547Z" fill="#00447C"/>
<path d="M52.1885 34.3285L65.1085 11.875C58.2406 4.73324 48.5897 0.290588 37.8994 0.290588C36.1335 0.290588 34.3956 0.41353 32.6912 0.648235L52.1885 34.3285Z" fill="#ECD925"/>
<path d="M48.2432 48.5897H74.1559C75.1282 45.2424 75.6479 41.705 75.6479 38.0447C75.6479 29.2879 72.6638 21.2297 67.6623 14.8256L48.2432 48.5897Z" fill="#EEE04A"/>
<path d="M34.0435 52.2835L47.12 74.6644C58.8385 71.7194 68.3776 63.3035 72.8706 52.2835H34.0435Z" fill="#F0E77B"/>
<path d="M41.8279 23.8059L28.8464 1.38589C17.0497 4.28619 7.43231 12.7356 2.92261 23.8059H41.8279Z" fill="#E0CC00"/>
<path d="M23.627 41.7832L10.7405 64.2815C17.6085 71.3841 27.2314 75.8044 37.8882 75.8044C39.7155 75.8044 41.515 75.6703 43.2752 75.4188L23.627 41.7832Z" fill="#F0E78F"/>
<path d="M27.5556 27.4997H1.63732C0.66497 30.847 0.145264 34.3844 0.145264 38.0447C0.145264 46.835 3.14615 54.9212 8.18115 61.3365L27.5556 27.4997Z" fill="#F0EA9B"/>
</svg>
